<?xml version="1.0" encoding="utf-8"?>
<!-- Generator: Adobe Illustrator 24.1.2, SVG Export Plug-In . SVG Version: 6.00 Build 0)  -->
<svg version="1.1" id="Warstwa_1" xmlns="http://www.w3.org/2000/svg" xmlns:xlink="http://www.w3.org/1999/xlink" x="0px" y="0px"
	 viewBox="0 0 430 430" style="enable-background:new 0 0 430 430;" xml:space="preserve">
<style type="text/css">
	.st0{fill:#121331;}
	.st1{fill:#e8e230;}
	.st2{fill:#e8e230;}
	.st3{fill:none;}
	.st4{fill:none;stroke:#121331;stroke-width:12;stroke-linecap:round;stroke-linejoin:round;stroke-miterlimit:10;}
	.st5{fill:#08A385;}
	.st6{fill:none;stroke:#e8e230;stroke-width:12;stroke-linecap:round;stroke-linejoin:round;stroke-miterlimit:10;}
</style>
<g>
	<path class="st1" d="M185.52,207.13c-0.3,0-0.61-0.02-0.92-0.07c-15.48-2.37-29.67-10.23-39.97-22.13
		c-10.4-12.02-16.13-27.41-16.13-43.32c0-36.51,29.71-66.21,66.22-66.21c36.51,0,66.22,29.7,66.22,66.21
		c0,18.27-7.66,35.91-21.02,48.38c-2.42,2.26-6.22,2.13-8.48-0.29c-2.26-2.42-2.13-6.22,0.29-8.48
		c11.09-10.36,17.21-24.42,17.21-39.6c0-29.89-24.32-54.21-54.22-54.21c-29.9,0-54.22,24.32-54.22,54.21
		c0,26.54,19.74,49.57,45.92,53.59c3.28,0.5,5.52,3.56,5.02,6.84C190.99,205,188.43,207.13,185.52,207.13z"/>
	<path class="st0" d="M407.05,345.68l-41.74-74.93c-0.26-1.02-0.78-1.94-1.49-2.68l-31.35-56.27c-1.06-1.9-3.06-3.08-5.24-3.08
		c-2.18,0-4.18,1.18-5.24,3.08l-32.34,58.05l-69.4-124.56c-0.01-0.02-0.03-0.04-0.04-0.06c-0.12-0.21-0.25-0.41-0.39-0.61
		c-0.01-0.02-0.02-0.03-0.04-0.04c-0.13-0.18-0.28-0.34-0.43-0.5c-0.04-0.05-0.09-0.09-0.14-0.14c-0.14-0.14-0.29-0.27-0.44-0.39
		c-0.03-0.03-0.07-0.06-0.1-0.08c-0.19-0.15-0.39-0.29-0.61-0.41c-0.02-0.01-0.05-0.03-0.08-0.04c-0.18-0.1-0.37-0.2-0.56-0.28
		c-0.06-0.03-0.13-0.05-0.19-0.08c-0.16-0.07-0.33-0.12-0.5-0.17c-0.07-0.02-0.13-0.04-0.2-0.06c-0.03-0.01-0.06-0.02-0.08-0.03
		c-0.21-0.05-0.42-0.09-0.63-0.12c-0.01,0-0.03,0-0.04,0c-0.24-0.03-0.47-0.04-0.7-0.05c-0.02,0-0.05,0-0.07,0
		c-0.03,0-0.06,0.01-0.09,0.01c-0.21,0-0.43,0.02-0.64,0.04c-0.04,0-0.07,0.01-0.11,0.01c-0.25,0.03-0.49,0.08-0.73,0.15
		c-0.03,0.01-0.06,0.02-0.09,0.03c-0.2,0.06-0.39,0.13-0.59,0.2c-0.06,0.02-0.12,0.05-0.18,0.08c-0.18,0.08-0.36,0.17-0.53,0.27
		c-0.04,0.02-0.08,0.04-0.11,0.06c-0.2,0.12-0.4,0.25-0.58,0.4c-0.05,0.04-0.09,0.07-0.13,0.11c-0.15,0.12-0.29,0.24-0.42,0.37
		c-0.04,0.04-0.09,0.09-0.13,0.13c-0.34,0.35-0.63,0.74-0.88,1.17c-0.01,0.02-0.02,0.03-0.03,0.05l-69.4,124.56l-32.34-58.04
		c-1.06-1.9-3.06-3.08-5.24-3.08c-2.18,0-4.18,1.18-5.24,3.08L22.95,345.68c-1.04,1.86-1.01,4.13,0.07,5.96
		c1.08,1.83,3.05,2.96,5.17,2.96h75.11c0.02,0,0.03,0,0.05,0h62.1c0.01,0,0.02,0,0.02,0c0.01,0,0.01,0,0.02,0h161.14
		c0.02,0,0.03,0,0.05,0h75.11c2.13,0,4.1-1.13,5.17-2.96C408.06,349.8,408.08,347.54,407.05,345.68z M252.63,342.6
		c-0.02,0-0.04,0-0.07,0h-75.13c-0.02,0-0.04,0-0.07,0h-4.22l44.03-178.16l99.26,178.16H252.63z M198.42,190.31L160.79,342.6h-47.21
		L198.42,190.31z M58.41,306.7H85c3.31,0,6-2.69,6-6s-2.69-6-6-6H65.09l37.69-67.65l30.71,55.12L99.84,342.6H38.41L58.41,306.7z
		 M330.17,342.6l-33.66-60.42l30.71-55.13l21.83,39.18h-19.68c-3.31,0-6,2.69-6,6s2.69,6,6,6h26.36l14.22,25.52h-9.35
		c-3.31,0-6,2.69-6,6s2.69,6,6,6h16.03l14.95,26.84H330.17z"/>
</g>
</svg>
