<?xml version="1.0" encoding="iso-8859-1"?>
<!-- Generator: Adobe Illustrator 19.0.0, SVG Export Plug-In . SVG Version: 6.00 Build 0)  -->
<svg version="1.1" id="Layer_1" xmlns="http://www.w3.org/2000/svg" xmlns:xlink="http://www.w3.org/1999/xlink" x="0px" y="0px"
	 viewBox="0 0 511.999 511.999" style="enable-background:new 0 0 511.999 511.999;" xml:space="preserve">
<g>
	<polygon style="fill:#F7B239;" points="269.605,8.997 214.608,165.34 214.608,8.997 	"/>
	<path style="fill:#F7B239;" d="M414.553,165.34v18.652c0,7.737-0.66,15.318-1.919,22.695H242.101
		c-15.186,0-27.493-12.307-27.493-27.481V165.34H414.553z"/>
	<path style="fill:#F7B239;" d="M351.112,403.31c19.336,0,35.001,15.677,35.001,35.001c0,19.336-15.665,35.001-35.001,35.001
		c-19.324,0-35.001-15.665-35.001-35.001C316.11,418.987,331.788,403.31,351.112,403.31z"/>
	<path style="fill:#F7B239;" d="M94.958,403.31c19.324,0,35.001,15.677,35.001,35.001c0,19.336-15.677,35.001-35.001,35.001
		c-19.336,0-35.001-15.665-35.001-35.001C59.957,418.987,75.622,403.31,94.958,403.31z"/>
</g>
<g>
	<path style="fill:#E09B2D;" d="M94.958,403.31c-5.134,0-10.005,1.114-14.396,3.1c12.147,5.491,20.61,17.708,20.61,31.902
		c0,14.202-8.462,26.414-20.61,31.903c4.393,1.984,9.263,3.098,14.396,3.098c19.324,0,35.001-15.665,35.001-35.001
		C129.959,418.987,114.282,403.31,94.958,403.31z"/>
	<path style="fill:#E09B2D;" d="M351.112,403.31c-5.134,0-10.005,1.114-14.396,3.1c12.147,5.491,20.61,17.708,20.61,31.902
		c0,14.202-8.462,26.414-20.61,31.903c4.393,1.984,9.263,3.098,14.396,3.098c19.324,0,35.001-15.665,35.001-35.001
		C386.113,418.987,370.436,403.31,351.112,403.31z"/>
</g>
<g>
	<path style="fill:#808080;" d="M291.82,412.438c3.239-7.425,7.833-14.118,13.47-19.78c11.707-11.755,27.912-19.024,45.821-19.024
		c35.733,0,64.689,28.956,64.689,64.677c0,35.733-28.956,64.689-64.689,64.689c-35.721,0-64.689-28.956-64.689-64.689
		C286.422,429.111,288.342,420.355,291.82,412.438z M386.113,438.311c0-19.324-15.665-35.001-35.001-35.001
		c-19.324,0-35.001,15.678-35.001,35.001c0,19.336,15.678,35.001,35.001,35.001C370.448,473.313,386.113,457.647,386.113,438.311z"
		/>
	<path style="fill:#808080;" d="M154.249,412.438c3.479,7.917,5.398,16.673,5.398,25.873c0,35.733-28.968,64.689-64.689,64.689
		c-35.733,0-64.689-28.956-64.689-64.689c0-35.721,28.956-64.677,64.689-64.677c18.292,0,34.81,7.593,46.565,19.792
		C146.824,398.919,151.167,405.349,154.249,412.438z M129.959,438.311c0-19.324-15.677-35.001-35.001-35.001
		c-19.336,0-35.001,15.678-35.001,35.001c0,19.336,15.665,35.001,35.001,35.001C114.282,473.313,129.959,457.647,129.959,438.311z"
		/>
</g>
<g>
	<path style="fill:#F95428;" d="M242.101,206.687h170.533c-9.32,54.637-51.723,97.999-105.856,108.735l-0.012,0.012
		c-8.48,1.691-17.249,2.567-26.221,2.567H166.868c-8.972,0-17.741-0.876-26.221-2.567l-0.012-0.012
		C79.185,303.235,32.86,249.03,32.86,183.993V165.34h181.748v13.866C214.608,194.38,226.915,206.687,242.101,206.687z"/>
	<path style="fill:#F95428;" d="M214.608,8.997V165.34H32.86v-25.705c0-72.15,58.488-130.638,130.638-130.638
		C163.498,8.997,214.608,8.997,214.608,8.997z"/>
</g>
<path style="fill:#D33924;" d="M216.2,315.422c-61.45-12.187-107.775-66.392-107.775-131.429V165.34v-25.705
	c0-63.791,45.724-116.893,106.183-128.343V8.997h-51.111c-72.15,0-130.638,58.488-130.638,130.638v25.705v18.652
	c0,65.037,46.325,119.242,107.775,131.429l0.012,0.012c8.48,1.691,17.249,2.567,26.221,2.567h75.565
	c-8.972,0-17.741-0.876-26.221-2.567L216.2,315.422z"/>
<path style="fill:#FFFFFF;" d="M327.922,285.595c-3.264,0-6.413-1.781-8.008-4.883c-2.272-4.419-0.533-9.843,3.886-12.115
	c16.677-8.576,30.374-21.761,39.609-38.13c2.441-4.328,7.926-5.857,12.256-3.415c4.327,2.441,5.856,7.929,3.415,12.255
	c-10.968,19.439-27.238,35.101-47.05,45.29C330.712,285.274,329.306,285.595,327.922,285.595z"/>
<g>
	<path style="fill:#333333;" d="M94.954,394.318c-24.261,0-43.998,19.738-43.998,43.998s19.738,43.998,43.998,43.998
		s43.998-19.738,43.998-43.998S119.214,394.318,94.954,394.318z M94.954,464.322c-14.34,0-26.005-11.666-26.005-26.005
		c0-14.339,11.666-26.005,26.005-26.005s26.005,11.666,26.005,26.005C120.96,452.656,109.293,464.322,94.954,464.322z"/>
	<path style="fill:#333333;" d="M351.115,482.315c24.261,0,43.998-19.738,43.998-43.998c0-24.26-19.738-43.998-43.998-43.998
		c-24.26,0-43.998,19.738-43.998,43.998C307.117,462.577,326.854,482.315,351.115,482.315z M351.115,412.311
		c14.34,0,26.005,11.666,26.005,26.005c0,14.339-11.666,26.005-26.005,26.005c-14.339,0-26.005-11.666-26.005-26.005
		C325.11,423.977,336.775,412.311,351.115,412.311z"/>
	<path style="fill:#333333;" d="M481.731,103.297h-29.704c-2.922,0-5.662,1.419-7.348,3.806L409.9,156.341H227.315l50.782-144.359
		c0.968-2.753,0.541-5.804-1.146-8.185C275.265,1.415,272.527,0,269.609,0H163.492C86.498,0,23.859,62.639,23.859,139.634v44.354
		c0,68.874,48.942,126.528,113.873,140.02l65.102,30.534l-59.639,28.149c-12.937-11.235-29.802-18.058-48.24-18.058
		c-40.63,0-73.683,33.055-73.683,73.683c0,40.63,33.055,73.683,73.683,73.683s73.683-33.055,73.683-73.683
		c0-5.808-0.697-11.454-1.973-16.879h112.741c-1.276,5.424-1.973,11.07-1.973,16.879c0,40.63,33.055,73.683,73.683,73.683
		s73.683-33.055,73.683-73.683c0-40.63-33.055-73.683-73.683-73.683c-18.048,0-34.592,6.534-47.417,17.345l-58.602-27.487
		l64.592-30.487c64.925-13.497,113.863-71.148,113.863-140.018v-15.784l33.136-46.913h25.044c4.968,0,8.996-4.028,8.996-8.996
		C490.727,107.325,486.7,103.297,481.731,103.297z M405.558,183.987c0,4.63-0.261,9.2-0.754,13.701H242.095
		c-10.193,0-18.487-8.293-18.487-18.487v-4.869h181.949v9.655H405.558z M223.607,112.66V17.993h33.302L223.607,112.66z
		 M41.851,139.634c0-67.074,54.568-121.641,121.641-121.641h42.122v138.348H41.851V139.634z M94.954,494.008
		c-30.708,0-55.69-24.983-55.69-55.69c0-30.708,24.983-55.69,55.69-55.69s55.69,24.983,55.69,55.69S125.662,494.008,94.954,494.008z
		 M351.115,382.625c30.708,0,55.69,24.983,55.69,55.69c0,30.708-24.983,55.69-55.69,55.69s-55.69-24.983-55.69-55.69
		C295.425,407.609,320.407,382.625,351.115,382.625z M290.943,395.869c-1.715,2.425-3.301,4.948-4.719,7.576H159.845
		c-1.259-2.334-2.645-4.588-4.139-6.763l68.271-32.222L290.943,395.869z M186.47,326.995h74.73l-37.248,17.58L186.47,326.995z
		 M280.544,309.002H166.866c-68.933,0-125.014-56.082-125.014-125.014v-9.655h163.766v4.869c0,20.114,16.365,36.479,36.479,36.479
		h159.387C387.417,269.317,338.529,309.002,280.544,309.002z"/>
</g>
<circle style="fill:#FFFFFF;" cx="300.954" cy="286.009" r="8.996"/>
<g>
</g>
<g>
</g>
<g>
</g>
<g>
</g>
<g>
</g>
<g>
</g>
<g>
</g>
<g>
</g>
<g>
</g>
<g>
</g>
<g>
</g>
<g>
</g>
<g>
</g>
<g>
</g>
<g>
</g>
</svg>
