<?xml version="1.0" encoding="iso-8859-1"?>
<!-- Generator: Adobe Illustrator 19.0.0, SVG Export Plug-In . SVG Version: 6.00 Build 0)  -->
<svg version="1.1" id="Layer_1" xmlns="http://www.w3.org/2000/svg" xmlns:xlink="http://www.w3.org/1999/xlink" x="0px" y="0px"
	 viewBox="0 0 512 512" style="enable-background:new 0 0 512 512;" xml:space="preserve">
<polygon style="fill:#FFFFFF;" points="355.265,472.294 156.735,472.294 125.388,112.849 386.612,112.849 "/>
<rect x="172.408" y="472.294" style="fill:#37A0BD;" width="167.184" height="31.869"/>
<path style="fill:#64C1DF;" d="M372.163,376.163H139.837c-5.269,0-9.714-3.924-10.369-9.153l-18.286-146.286
	c-0.779-6.237,4.083-11.745,10.369-11.745h268.898c6.285,0,11.148,5.509,10.369,11.745L382.532,367.01
	C381.878,372.24,377.433,376.163,372.163,376.163z"/>
<path style="fill:#FFFFFF;" d="M151.07,367.01l-18.286-146.286c-0.779-6.237,4.083-11.745,10.369-11.745h-21.602
	c-6.285,0-11.148,5.509-10.369,11.745l18.286,146.286c0.654,5.229,5.099,9.153,10.369,9.153h21.602
	C156.168,376.163,151.723,372.24,151.07,367.01z"/>
<polygon style="fill:#37A0BD;" points="376.163,49.633 135.837,49.633 156.735,7.837 355.265,7.837 "/>
<rect x="99.265" y="49.633" style="fill:#64C1DF;" width="313.469" height="63.216"/>
<g>
	<rect x="99.265" y="49.633" style="fill:#FFFFFF;" width="20.898" height="63.216"/>
	<circle style="fill:#FFFFFF;" cx="256" cy="292.571" r="43.886"/>
</g>
<rect x="370.939" y="73.404" width="15.673" height="15.673"/>
<path d="M420.571,120.686v-78.89h-39.565L360.108,0H151.892l-20.898,41.796H91.429v78.89h26.776l5.51,63.211l-15.928,15.928
	c-4.019,4.019-5.919,9.558-5.215,15.198l19.12,152.961c1.142,9.131,8.942,16.017,18.145,16.017h1.335l8.38,96.131h15.021V512
	h182.857v-31.869h15.02L370.828,384h1.335c9.204,0,17.004-6.887,18.145-16.018l19.121-152.959
	c0.705-5.639-1.196-11.178-5.215-15.198l-15.927-15.928l5.51-63.211h26.775V120.686z M161.578,15.673h188.844l13.061,26.122H148.517
	L161.578,15.673z M107.102,89.078h248.163V73.404H107.102V57.469h297.796v47.543H107.102V89.078z M331.755,496.327h-151.51v-16.196
	h151.51V496.327z M348.082,464.457h-0.653H164.571h-0.654L156.904,384h198.191L348.082,464.457z M374.755,366.039
	c-0.162,1.304-1.277,2.287-2.591,2.287H139.837c-1.314,0-2.429-0.984-2.592-2.288l-18.652-149.222h274.816L374.755,366.039z
	 M371.049,201.143H140.952l-7.013-80.457h244.125L371.049,201.143z"/>
<path d="M256,240.849c-28.519,0-51.722,23.203-51.722,51.722c0,28.519,23.203,51.722,51.722,51.722s51.722-23.203,51.722-51.722
	C307.722,264.052,284.519,240.849,256,240.849z M256,328.62c-19.877,0-36.049-16.172-36.049-36.049s16.172-36.049,36.049-36.049
	c19.877,0,36.049,16.172,36.049,36.049S275.877,328.62,256,328.62z"/>
<g>
</g>
<g>
</g>
<g>
</g>
<g>
</g>
<g>
</g>
<g>
</g>
<g>
</g>
<g>
</g>
<g>
</g>
<g>
</g>
<g>
</g>
<g>
</g>
<g>
</g>
<g>
</g>
<g>
</g>
</svg>
