<?xml version="1.0" encoding="iso-8859-1"?>
<!-- Generator: Adobe Illustrator 19.0.0, SVG Export Plug-In . SVG Version: 6.00 Build 0)  -->
<svg version="1.1" id="Layer_1" xmlns="http://www.w3.org/2000/svg" xmlns:xlink="http://www.w3.org/1999/xlink" x="0px" y="0px"
	 viewBox="0 0 512 512" style="enable-background:new 0 0 512 512;" xml:space="preserve">
<path style="fill:#FF3B3B;" d="M69.174,59.145C69.189,59.16,189.809,179.78,189.809,179.78l-38.514,38.514L30.66,97.659
	L69.174,59.145z"/>
<path style="fill:#FF6761;" d="M53.822,74.605l120.581,120.581l43.906-43.906L97.674,30.644L53.768,74.551
	C53.784,74.566,53.807,74.589,53.822,74.605z"/>
<path style="fill:#CB2E3E;" d="M17.28,71.046L8.183,8.167l77.445,98.242c-17.786,9.05-40.086,6.132-54.968-8.751
	C23.165,90.164,18.705,80.79,17.28,71.046z"/>
<path style="fill:#FF3B3B;" d="M53.822,74.605l31.805,31.805c4.344-2.203,8.42-5.122,12.047-8.751
	c18.503-18.503,18.51-48.506,0-67.015C90.18,23.149,80.805,18.69,71.06,17.265L8.183,8.167l27.638,44.338
	c4.299,6.871,10.452,14.551,17.948,22.045C53.784,74.566,53.807,74.589,53.822,74.605z"/>
<polygon style="fill:#FFE29E;" points="121.254,202.118 248.359,329.224 294.576,283.006 144.362,179.01 "/>
<rect x="146.929" y="172.833" transform="matrix(0.7071 0.7071 -0.7071 0.7071 220.4558 -104.8603)" style="fill:#FFF1CF;" width="179.753" height="81.701"/>
<polygon style="fill:#FFD764;" points="251.533,335.495 430.649,480.717 503.834,407.531 356.446,260.144 "/>
<polygon style="fill:#FFB751;" points="301.902,205.6 356.446,260.144 285.426,335.495 430.648,480.717 407.539,503.826 
	205.608,301.895 "/>
<path style="fill:#B26156;" d="M499.019,154.604l-130.433,54.714l-38.052-19.381l173.162-74.225
	C504.303,128.722,502.74,141.886,499.019,154.604z"/>
<path style="fill:#CC8073;" d="M503.694,115.712l-157.755,89.631l-33.415-5.869l-9.837-56.069l55.099-130.541
	c39.392-11.385,82.914-2.095,113.171,28.177C491.539,61.622,502.424,88.343,503.694,115.712z"/>
<polygon style="fill:#7BFFCD;" points="368.586,209.318 276.159,296.429 211.378,283.118 345.478,186.208 "/>
<polygon style="fill:#CAFFEB;" points="345.478,186.208 234.487,290.821 222.754,289.243 215.575,235.831 302.688,143.403 "/>
<path style="fill:#FF6288;" d="M253.05,273.321l-21.412,7.923L18.096,493.901c12.948,12.948,34.448,13.28,47.781,0.732
	l210.281-198.204L253.05,273.321z"/>
<path style="fill:#FF849B;" d="M215.575,235.831L17.373,446.112c-12.556,13.341-12.225,34.841,0.724,47.789
	c3.073,3.073,16.246-4.922,29.279-17.771l205.675-202.81L215.575,235.831z"/>
<path d="M509.606,401.758L365.065,257.216c-3.192-3.191-8.364-3.191-11.555,0c-3.191,3.191-3.191,8.364,0,11.554l138.765,138.765
	l-84.737,84.738L265.925,350.66c-3.192-3.191-8.364-3.191-11.555,0c-3.191,3.191-3.191,8.364,0,11.554l147.391,147.39
	c1.533,1.533,3.61,2.393,5.778,2.393c2.168,0,4.244-0.861,5.778-2.393l96.291-96.291
	C512.797,410.122,512.797,404.949,509.606,401.758z"/>
<path d="M502.185,162.135c2.27-0.952,3.989-2.878,4.681-5.241c12.775-43.67,1.231-90.278-30.125-121.635
	c-22.737-22.737-53.247-35.258-85.908-35.258c-11.915,0-23.799,1.687-35.317,5.016c-2.368,0.684-4.301,2.401-5.259,4.672
	L295.73,138.875l-31.253,33.158l-56.572-56.572c-3.191-3.191-8.363-3.192-11.555,0l-1.155,1.155L103.45,24.871
	c-8.527-8.523-19.32-13.948-31.224-15.687L9.343,0.084C6.791-0.285,4.218,0.571,2.395,2.394C0.574,4.215-0.283,6.789,0.087,9.341
	l9.102,62.894c1.736,11.892,7.16,22.686,15.686,31.211l91.745,91.745l-1.156,1.156c-3.191,3.191-3.191,8.364,0,11.554l59.307,59.308
	L11.419,440.518c-15.572,16.548-15.167,43.086,0.904,59.157C20.27,507.622,30.947,512,42.388,512
	c10.936,0,21.269-4.057,29.099-11.424l301.631-284.3L502.185,162.135z M363.761,19.712c8.875-2.238,17.962-3.37,27.07-3.37
	c28.297,0,54.703,10.822,74.353,30.473c26.252,26.252,36.429,64.945,27.012,101.79l-121.707,51.054L359.02,188.19l84.325-64.043
	c3.594-2.729,4.293-7.854,1.565-11.448c-2.729-3.593-7.854-4.294-11.448-1.565l-86.104,65.394l-11.878-11.878l20.728-27.203
	c2.734-3.588,2.041-8.715-1.547-11.45c-3.59-2.734-8.716-2.043-11.451,1.547L323.82,152.99l-11.47-11.47L363.761,19.712z
	 M276.334,285.042l-49.377-49.377l75.901-80.528l54.005,54.005L276.334,285.042z M69.875,25.354c8.386,1.226,16,5.054,22.018,11.072
	c15.292,15.292,15.292,40.172,0,55.465c-7.408,7.408-17.255,11.487-27.732,11.487s-20.324-4.08-27.732-11.487
	c-6.019-6.019-9.849-13.633-11.071-22.008l-7.534-52.061L69.875,25.354z M132.796,202.124l1.151-1.151
	c0.01-0.01,21.96-21.96,21.96-21.96c3.191-3.191,3.191-8.364,0-11.554c-3.192-3.191-8.364-3.191-11.555,0l-16.178,16.178
	l-63.92-63.92c14.805-0.024,28.722-5.799,39.194-16.271c10.814-10.814,16.228-25.014,16.246-39.218l63.945,63.945l-16.178,16.178
	c-3.191,3.191-3.191,8.364,0,11.554c3.191,3.19,8.363,3.192,11.555,0l23.111-23.111l51.137,51.138l-67.28,71.381L132.796,202.124z
	 M60.283,488.68c-4.783,4.501-11.138,6.979-17.893,6.979c-7.078,0-13.652-2.678-18.511-7.538
	c-9.891-9.891-10.143-26.222-0.564-36.401l192.429-204.159l48.694,48.694L60.283,488.68z"/>
<path d="M364.565,112.997c1.479,1.127,3.219,1.672,4.946,1.672c2.463,0,4.897-1.109,6.506-3.219l25.056-32.882
	c2.734-3.589,2.041-8.716-1.547-11.45c-3.589-2.734-8.714-2.043-11.451,1.546l-25.056,32.882
	C360.284,105.136,360.977,110.263,364.565,112.997z"/>
<g>
</g>
<g>
</g>
<g>
</g>
<g>
</g>
<g>
</g>
<g>
</g>
<g>
</g>
<g>
</g>
<g>
</g>
<g>
</g>
<g>
</g>
<g>
</g>
<g>
</g>
<g>
</g>
<g>
</g>
</svg>
