<?xml version="1.0" encoding="iso-8859-1"?>
<!-- Generator: Adobe Illustrator 18.0.0, SVG Export Plug-In . SVG Version: 6.00 Build 0)  -->
<!DOCTYPE svg PUBLIC "-//W3C//DTD SVG 1.1//EN" "http://www.w3.org/Graphics/SVG/1.1/DTD/svg11.dtd">
<svg version="1.1" id="Capa_1" xmlns="http://www.w3.org/2000/svg" xmlns:xlink="http://www.w3.org/1999/xlink" x="0px" y="0px"
	 viewBox="0 0 303.124 303.124" style="enable-background:new 0 0 303.124 303.124;" xml:space="preserve">
<path d="M189.474,96.807c-2.342-0.715-4.862,0.075-6.39,1.938l-2.504,3.009v-64.86c0-3.313-2.686-6-6-6H88.15
	C85.541,13.431,70.442,0,52.267,0c-0.017,0-0.034,0-0.052,0C32.219,0.032,15.974,16.328,16.002,36.329l0.113,68.904l-5.448-6.534
	C9.526,97.333,7.78,96.542,6,96.542c-3.313,0-6,2.754-6,6.067v198.48c0,3.314,2.687,6,6,6h181.723c3.313,0,6-2.686,6-6
	l0.006-198.547C193.729,99.902,192,97.576,189.474,96.807z M88.913,119.862c-0.133-1.312-0.223-2.631-0.227-3.95v-0.307
	c0.092-21.946,17.973-39.773,39.944-39.773c22.028,0,39.949,17.918,39.949,39.943c0,0.135-0.011,0.275-0.012,0.412l-11.049,13.276
	L131.874,98.7c-1.14-1.368-2.828-2.158-4.608-2.158c-1.78,0-3.468,0.791-4.608,2.157l-25.696,30.816L88.913,119.862z M168.58,82.612
	c-9.537-11.466-23.903-18.78-39.949-18.78c-16.073,0-30.464,7.339-40,18.839l-0.067-39.778h80.017V82.612z M28.002,36.311
	C27.983,22.927,38.854,12.021,52.233,12c0.012,0,0.022,0,0.034,0c10.409,0,19.313,6.584,22.759,15.809l-26.199,26.28
	c-1.755,1.76-1.751,4.609,0.01,6.364c0.878,0.875,2.027,1.313,3.177,1.313c1.154,0,2.308-0.442,3.187-1.323l21.358-21.423
	l0.031,19.012L48.892,85.815c-1.755,1.76-1.751,4.609,0.01,6.364c0.878,0.876,2.027,1.313,3.177,1.313
	c1.154,0,2.308-0.441,3.187-1.323L76.61,70.758l0.059,34.417L71.271,98.7c-1.14-1.367-2.828-2.158-4.608-2.158
	c-1.78,0-3.469,0.791-4.608,2.158l-25.69,30.816l-8.225-9.863L28.002,36.311z M181.723,295.09H12V119.036l19.755,23.691
	c1.141,1.367,2.828,2.157,4.608,2.157c1.78,0,3.469-0.79,4.608-2.158l25.691-30.815l11.787,14.139
	c0.038,0.047,0.076,0.092,0.115,0.138l13.788,16.539c1.14,1.367,2.828,2.158,4.608,2.158c1.78,0,3.468-0.79,4.608-2.157
	l25.695-30.816l25.65,30.768c1.14,1.368,2.828,2.158,4.608,2.158h0.003c1.781-0.001,3.47-0.793,4.609-2.162l17.054-20.492
	c0.012-0.014,0.024-0.028,0.036-0.043l2.5-3.004L181.723,295.09z"/>
<g>
</g>
<g>
</g>
<g>
</g>
<g>
</g>
<g>
</g>
<g>
</g>
<g>
</g>
<g>
</g>
<g>
</g>
<g>
</g>
<g>
</g>
<g>
</g>
<g>
</g>
<g>
</g>
<g>
</g>
</svg>
