<?xml version="1.0" encoding="iso-8859-1"?>
<!-- Generator: Adobe Illustrator 19.0.0, SVG Export Plug-In . SVG Version: 6.00 Build 0)  -->
<svg version="1.1" id="Layer_1" xmlns="http://www.w3.org/2000/svg" xmlns:xlink="http://www.w3.org/1999/xlink" x="0px" y="0px"
	 viewBox="0 0 512 512" style="enable-background:new 0 0 512 512;" xml:space="preserve">
<g>
	<g>
		<path d="M395.35,168.759c-9.355-23.554-25.363-43.664-46.294-58.151c-21.442-14.843-46.578-22.688-72.687-22.688
			c-6.846,0-12.397,5.551-12.397,12.397c0,22.826,8.891,44.279,25.029,60.4c16.131,16.132,37.582,25.016,60.4,25.016h34.428
			c4.107,0,7.949-2.036,10.256-5.435C396.391,176.9,396.864,172.578,395.35,168.759z M349.4,160.939
			c-16.194,0-31.419-6.305-42.872-17.758c-8.248-8.24-13.828-18.439-16.305-29.552c30.477,4.06,57.266,21.385,73.496,47.31H349.4z"
			/>
	</g>
</g>
<g>
	<g>
		<path d="M445.58,212.187c0.005-0.14,0.021-0.278,0.021-0.419c0-0.429-0.022-0.853-0.064-1.271
			c-1.386-45.144-19.936-87.369-52.311-118.989c-32.664-31.901-75.803-49.471-121.469-49.471h-31.873V12.397
			c0-6.846-5.55-12.397-12.397-12.397S215.09,5.551,215.09,12.397v29.641h-15.496V12.397c0-6.846-5.55-12.397-12.397-12.397h-49.588
			c-6.847,0-12.397,5.551-12.397,12.397v31.851c-33.725,8.234-58.837,38.688-58.837,74.913v92.606v18.695
			c0,20.288,16.505,36.795,36.795,36.795h24.273v68.767h-11.17c-18.682,0-33.881,15.199-33.881,33.881v81.176
			c0,18.682,15.199,33.881,33.881,33.881h11.17v14.641c0,6.846,5.55,12.397,12.397,12.397s12.397-5.551,12.397-12.397v-14.641h11.17
			c18.682,0,33.881-15.199,33.881-33.881v-81.176c0-18.682-15.199-33.881-33.881-33.881h-11.17v-68.767h256.595
			c20.288,0,36.795-16.505,36.795-36.795V215.92C445.626,214.672,445.607,213.427,445.58,212.187z M127.442,460.169h-11.17v-0.001
			c-5.011,0-9.087-4.076-9.087-9.087v-81.176c0-5.011,4.076-9.087,9.087-9.087h11.17V460.169z M150.005,24.794h24.794v17.244
			h-24.794V24.794z M163.406,360.817c5.011,0,9.087,4.076,9.087,9.087v81.176c0,5.011-4.076,9.087-9.087,9.087h-11.17v-99.35
			H163.406z M420.832,230.462c0,6.616-5.384,12-12,12H103.169c-6.618,0-12-5.384-12-12v-6.298h26.815
			c6.847,0,12.397-5.551,12.397-12.397c0-6.846-5.55-12.397-12.397-12.397H91.168v-80.209c0-28.853,23.475-52.328,52.328-52.328
			h43.7h84.561c77.217,0,140.02,57.261,148.173,132.537H199.593c-6.847,0-12.397,5.551-12.397,12.397
			c0,6.846,5.55,12.397,12.397,12.397h221.239V230.462z"/>
	</g>
</g>
<g>
	<g>
		<path d="M160.232,199.37h-2.479c-6.847,0-12.397,5.551-12.397,12.397c0,6.846,5.55,12.397,12.397,12.397h2.479
			c6.847,0,12.397-5.551,12.397-12.397C172.63,204.922,167.079,199.37,160.232,199.37z"/>
	</g>
</g>
<g>
</g>
<g>
</g>
<g>
</g>
<g>
</g>
<g>
</g>
<g>
</g>
<g>
</g>
<g>
</g>
<g>
</g>
<g>
</g>
<g>
</g>
<g>
</g>
<g>
</g>
<g>
</g>
<g>
</g>
</svg>
