<?xml version="1.0" encoding="iso-8859-1"?>
<!-- Generator: Adobe Illustrator 18.0.0, SVG Export Plug-In . SVG Version: 6.00 Build 0)  -->
<!DOCTYPE svg PUBLIC "-//W3C//DTD SVG 1.1//EN" "http://www.w3.org/Graphics/SVG/1.1/DTD/svg11.dtd">
<svg version="1.1" id="Capa_1" xmlns="http://www.w3.org/2000/svg" xmlns:xlink="http://www.w3.org/1999/xlink" x="0px" y="0px"
	 viewBox="0 0 56 56" style="enable-background:new 0 0 56 56;" xml:space="preserve">
<g>
	<path d="M18.957,24c-2.757,0-5,2.243-5,5s2.243,5,5,5s5-2.243,5-5S21.713,24,18.957,24z M18.957,32c-1.654,0-3-1.346-3-3
		s1.346-3,3-3s3,1.346,3,3S20.611,32,18.957,32z"/>
	<path d="M38.957,28c-2.206,0-4,1.794-4,4s1.794,4,4,4s4-1.794,4-4S41.162,28,38.957,28z M38.957,34c-1.103,0-2-0.897-2-2
		s0.897-2,2-2s2,0.897,2,2S40.06,34,38.957,34z"/>
	<path d="M30.957,38c0-1.654-1.346-3-3-3s-3,1.346-3,3s1.346,3,3,3S30.957,39.654,30.957,38z M26.957,38c0-0.552,0.449-1,1-1
		s1,0.448,1,1s-0.449,1-1,1S26.957,38.552,26.957,38z"/>
	<path d="M18.957,43c-2.206,0-4,1.794-4,4s1.794,4,4,4s4-1.794,4-4S21.162,43,18.957,43z M18.957,49c-1.103,0-2-0.897-2-2
		s0.897-2,2-2s2,0.897,2,2S20.06,49,18.957,49z"/>
	<path d="M38.957,43c-1.654,0-3,1.346-3,3s1.346,3,3,3s3-1.346,3-3S40.611,43,38.957,43z M38.957,47c-0.551,0-1-0.448-1-1
		s0.449-1,1-1s1,0.448,1,1S39.508,47,38.957,47z"/>
	<path d="M27.244,29.262l2.53,1.266c0.144,0.071,0.296,0.105,0.446,0.105c0.367,0,0.72-0.202,0.896-0.553
		c0.247-0.494,0.047-1.095-0.447-1.342l-2.53-1.266c-0.494-0.245-1.095-0.047-1.342,0.447S26.75,29.015,27.244,29.262z"/>
	<path d="M36.957,41c0.256,0,0.512-0.098,0.707-0.293c0.391-0.391,0.391-1.023,0-1.414l-2-2c-0.391-0.391-1.023-0.391-1.414,0
		s-0.391,1.023,0,1.414l2,2C36.445,40.902,36.701,41,36.957,41z"/>
	<path d="M29.982,46.604l-2.684,0.895c-0.524,0.174-0.807,0.74-0.632,1.265c0.14,0.419,0.53,0.684,0.949,0.684
		c0.104,0,0.211-0.017,0.316-0.052l2.684-0.895c0.524-0.174,0.807-0.74,0.632-1.265C31.072,46.713,30.507,46.429,29.982,46.604z"/>
	<path d="M15.664,39.707l2-2c0.391-0.391,0.391-1.023,0-1.414s-1.023-0.391-1.414,0l-2,2c-0.391,0.391-0.391,1.023,0,1.414
		C14.445,39.902,14.701,40,14.957,40S15.468,39.902,15.664,39.707z"/>
	<path d="M34.184,11.026c-0.537-0.12-1.075,0.208-1.201,0.746c-0.126,0.537,0.208,1.075,0.746,1.201
		c0.071,0.017,7.137,1.729,8.248,7.225C42.072,20.673,42.489,21,42.956,21c0.065,0,0.132-0.006,0.199-0.02
		c0.541-0.109,0.891-0.637,0.782-1.179C42.575,13.063,34.526,11.106,34.184,11.026z"/>
	<path d="M43.505,11.035c-1.449-0.688-2.255-1.111-2.458-2C41.119,9.03,41.184,9.01,41.254,9c0.106-0.014,0.212-0.028,0.314-0.052
		c0.099-0.024,0.193-0.058,0.288-0.092c0.096-0.034,0.193-0.065,0.285-0.108c0.092-0.043,0.176-0.097,0.263-0.149
		c0.084-0.051,0.17-0.098,0.249-0.157c0.083-0.062,0.157-0.134,0.233-0.204c0.07-0.064,0.144-0.125,0.208-0.196
		c0.073-0.081,0.135-0.172,0.199-0.26c0.055-0.075,0.114-0.145,0.162-0.225c0.061-0.102,0.109-0.213,0.16-0.323
		c0.037-0.079,0.08-0.154,0.111-0.237c0.048-0.129,0.079-0.268,0.112-0.405c0.018-0.074,0.045-0.143,0.058-0.219
		c0.039-0.218,0.06-0.444,0.06-0.678V3.348c0-1.908-1.346-3.348-3.13-3.348H15.087c-1.785,0-3.13,1.439-3.13,3.348v2.348
		c0,1.909,1.346,3.349,3.13,3.349h0.12c-0.197,0.827-0.953,1.254-2.544,1.986c-2.372,1.091-5.619,2.585-5.619,8.074v10.558v15.496
		C7.043,51.137,11.907,56,17.885,56h20.23c5.978,0,10.841-4.863,10.841-10.842V33.436V19.104
		C48.957,13.623,45.806,12.128,43.505,11.035z M41.957,3.348v2.348c0,0.084-0.005,0.168-0.017,0.25
		c-0.078,0.579-0.431,1.097-1.114,1.097h-1.831v0.001h-0.039V2h1.87C41.607,2,41.957,2.677,41.957,3.348z M18.957,2h2v5.044h-2V2z
		 M22.957,2h2v5.044h-2V2z M26.957,2h2v5.044h-2V2z M30.957,2h2v5.044h-2V2z M34.957,2h2v5.044h-2V2z M13.957,3.348
		c0-0.671,0.35-1.348,1.13-1.348h1.87v5.043h-1.87c-0.683,0-1.036-0.518-1.114-1.097c-0.011-0.083-0.017-0.167-0.017-0.25V3.348z
		 M46.957,45.158c0,4.875-3.966,8.842-8.841,8.842h-20.23c-4.875,0-8.841-3.967-8.841-8.842V29.662c0-2.694,1.154-5.268,3.166-7.061
		c1.744-1.554,3.998-2.401,6.312-2.401c0.362,0,0.726,0.021,1.09,0.063c2.227,0.259,4.392,0.747,6.436,1.452l0.002,0.001
		c0.315,0.107,0.623,0.242,0.926,0.38c1.371,0.621,5.107,2.044,10.172,1.893c2.621-0.101,5.079,0.871,6.945,2.682
		c1.847,1.79,2.865,4.193,2.865,6.766V45.158z M45.484,25.233c-2.259-2.19-5.254-3.301-8.399-3.245
		c-4.785,0.16-8.314-1.274-9.285-1.715c-0.36-0.163-0.727-0.321-1.101-0.449c-2.181-0.752-4.488-1.273-6.858-1.548
		c-3.251-0.378-6.52,0.655-8.962,2.832c-0.706,0.629-1.312,1.344-1.835,2.112v-4.116c0-4.208,2.164-5.203,4.455-6.258
		c1.639-0.753,3.46-1.619,3.712-3.803h21.834c0.246,2.177,2.013,3.043,3.603,3.798c2.216,1.052,4.309,2.046,4.309,6.263v7.869
		C46.529,26.354,46.038,25.771,45.484,25.233z"/>
</g>
<g>
</g>
<g>
</g>
<g>
</g>
<g>
</g>
<g>
</g>
<g>
</g>
<g>
</g>
<g>
</g>
<g>
</g>
<g>
</g>
<g>
</g>
<g>
</g>
<g>
</g>
<g>
</g>
<g>
</g>
</svg>
